<?xml version="1.0" standalone="no"?>
<!DOCTYPE svg PUBLIC "-//W3C//DTD SVG 20010904//EN"
 "http://www.w3.org/TR/2001/REC-SVG-20010904/DTD/svg10.dtd">
<svg version="1.0" xmlns="http://www.w3.org/2000/svg"
 width="129.000000pt" height="129.000000pt" viewBox="0 0 129.000000 129.000000"
 preserveAspectRatio="xMidYMid meet">
<metadata>
Created by potrace 1.11, written by Peter Selinger 2001-2013
</metadata>
<g transform="translate(0.000000,129.000000) scale(0.100000,-0.100000)"
fill="#000000" stroke="none">
<path d="M643 1188 c-116 -18 -248 -89 -323 -176 -41 -48 -107 -168 -115 -210
-2 -13 -7 -33 -10 -44 -4 -11 -8 -48 -9 -82 -2 -60 -6 -68 -79 -180 -42 -64
-77 -124 -77 -133 0 -14 2 -14 15 3 14 18 14 17 5 -9 -13 -37 -13 -50 1 -41
12 7 12 6 -11 -40 -10 -20 -11 -31 -4 -33 6 -2 9 -15 6 -30 -3 -18 -1 -24 7
-19 6 4 11 14 11 22 0 13 88 106 131 137 8 7 22 22 30 34 15 22 16 21 56 -40
150 -228 447 -306 698 -183 132 65 249 206 280 336 50 205 0 394 -140 534
-124 124 -298 181 -472 154z m-570 -929 c-4 -4 -14 -5 -20 -1 -10 6 -9 14 5
32 l17 25 3 -24 c2 -13 0 -27 -5 -32z"/>
</g>
</svg>
